<svg width="93" height="25" viewBox="0 0 93 25" fill="none" xmlns="http://www.w3.org/2000/svg">
<path d="M10.1652 2.4C11.1918 2.4 12.1158 2.652 12.9372 3.156C13.7585 3.66 14.4025 4.35067 14.8692 5.228C15.3545 6.10533 15.5972 7.104 15.5972 8.224C15.5972 9.32533 15.3545 10.324 14.8692 11.22C14.4025 12.116 13.7585 12.8253 12.9372 13.348C12.1158 13.8707 11.1918 14.132 10.1652 14.132H4.48116L4.67716 13.796V20.852C4.67716 21.1693 4.5745 21.44 4.36916 21.664C4.16383 21.888 3.9025 22 3.58516 22C3.24916 22 2.9785 21.888 2.77316 21.664C2.5865 21.44 2.49316 21.1693 2.49316 20.852V3.52C2.49316 3.20267 2.59583 2.94133 2.80116 2.736C3.02516 2.512 3.29583 2.4 3.61316 2.4H10.1652ZM10.1652 11.976C10.7812 11.976 11.3225 11.808 11.7892 11.472C12.2558 11.136 12.6292 10.6787 12.9092 10.1C13.1892 9.52133 13.3292 8.896 13.3292 8.224C13.3292 7.51467 13.1892 6.88933 12.9092 6.348C12.6292 5.80667 12.2558 5.37733 11.7892 5.06C11.3225 4.724 10.7812 4.556 10.1652 4.556H4.48116L4.67716 4.248V12.256L4.48116 11.976H10.1652Z" fill="black"/>
<path d="M21.5789 20.852C21.5789 21.1693 21.4575 21.44 21.2149 21.664C20.9909 21.888 20.7202 22 20.4029 22C20.0482 22 19.7682 21.888 19.5629 21.664C19.3575 21.44 19.2549 21.1693 19.2549 20.852V3.548C19.2549 3.212 19.3669 2.94133 19.5909 2.736C19.8149 2.512 20.0949 2.4 20.4309 2.4C20.7482 2.4 21.0189 2.512 21.2429 2.736C21.4669 2.94133 21.5789 3.212 21.5789 3.548V20.852Z" fill="black"/>
<path d="M34.621 2.4C35.9836 2.4 37.1783 2.66133 38.205 3.184C39.2503 3.688 40.1183 4.39733 40.809 5.312C41.4996 6.22667 42.013 7.28133 42.349 8.476C42.7036 9.652 42.881 10.8933 42.881 12.2C42.881 13.992 42.573 15.6347 41.957 17.128C41.341 18.6027 40.4263 19.788 39.213 20.684C37.9996 21.5613 36.469 22 34.621 22H27.621C27.3036 22 27.033 21.888 26.809 21.664C26.6036 21.44 26.501 21.1693 26.501 20.852V3.52C26.501 3.20267 26.6036 2.94133 26.809 2.736C27.033 2.512 27.3036 2.4 27.621 2.4H34.621ZM34.341 19.816C35.7783 19.816 36.945 19.4707 37.841 18.78C38.7556 18.0893 39.4183 17.1653 39.829 16.008C40.2583 14.8507 40.473 13.5813 40.473 12.2C40.473 11.192 40.3516 10.2307 40.109 9.316C39.885 8.38267 39.521 7.56133 39.017 6.852C38.5316 6.14267 37.897 5.58267 37.113 5.172C36.3476 4.76133 35.4236 4.556 34.341 4.556H28.601L28.825 4.332V20.096L28.657 19.816H34.341Z" fill="black"/>
<path d="M54.2706 2.4C55.2973 2.4 56.2213 2.652 57.0426 3.156C57.864 3.66 58.508 4.35067 58.9746 5.228C59.46 6.10533 59.7026 7.104 59.7026 8.224C59.7026 9.32533 59.46 10.324 58.9746 11.22C58.508 12.116 57.864 12.8253 57.0426 13.348C56.2213 13.8707 55.2973 14.132 54.2706 14.132H48.5866L48.7826 13.796V20.852C48.7826 21.1693 48.68 21.44 48.4746 21.664C48.2693 21.888 48.008 22 47.6906 22C47.3546 22 47.084 21.888 46.8786 21.664C46.692 21.44 46.5986 21.1693 46.5986 20.852V3.52C46.5986 3.20267 46.7013 2.94133 46.9066 2.736C47.1306 2.512 47.4013 2.4 47.7186 2.4H54.2706ZM54.2706 11.976C54.8866 11.976 55.428 11.808 55.8946 11.472C56.3613 11.136 56.7346 10.6787 57.0146 10.1C57.2946 9.52133 57.4346 8.896 57.4346 8.224C57.4346 7.51467 57.2946 6.88933 57.0146 6.348C56.7346 5.80667 56.3613 5.37733 55.8946 5.06C55.428 4.724 54.8866 4.556 54.2706 4.556H48.5866L48.7826 4.248V12.256L48.5866 11.976H54.2706Z" fill="black"/>
<path d="M69.0153 5.312L62.4353 21.328C62.3606 21.552 62.2299 21.7293 62.0433 21.86C61.8566 21.9907 61.6606 22.056 61.4553 22.056C61.1006 22.056 60.8393 21.9627 60.6713 21.776C60.5033 21.5893 60.4193 21.3653 60.4193 21.104C60.4006 20.9733 60.4193 20.8333 60.4753 20.684L67.7273 3.044C67.8206 2.78267 67.9606 2.596 68.1473 2.484C68.3526 2.35333 68.5766 2.29733 68.8193 2.316C69.0619 2.316 69.2766 2.38133 69.4633 2.512C69.6686 2.64267 69.8086 2.82 69.8833 3.044L77.1073 20.516C77.1633 20.6653 77.1913 20.8147 77.1913 20.964C77.1913 21.3 77.0793 21.5707 76.8553 21.776C76.6313 21.9627 76.3793 22.056 76.0993 22.056C75.8753 22.056 75.6699 21.9907 75.4833 21.86C75.2966 21.7293 75.1566 21.5427 75.0633 21.3L68.3993 5.284L69.0153 5.312ZM63.8353 16.764L64.7873 14.58H73.1033L73.5233 16.764H63.8353Z" fill="black"/>
<path d="M91.0668 19.788C91.3841 19.788 91.6548 19.9 91.8788 20.124C92.1028 20.3293 92.2148 20.5907 92.2148 20.908C92.2148 21.2253 92.1028 21.4867 91.8788 21.692C91.6548 21.8973 91.3841 22 91.0668 22H81.3788C81.0615 22 80.7908 21.888 80.5668 21.664C80.3615 21.44 80.2588 21.1693 80.2588 20.852V3.52C80.2588 3.20267 80.3708 2.94133 80.5948 2.736C80.8188 2.512 81.0988 2.4 81.4348 2.4C81.7521 2.4 82.0228 2.512 82.2468 2.736C82.4708 2.94133 82.5828 3.20267 82.5828 3.52V20.292L82.0228 19.788H91.0668Z" fill="black"/>
</svg>
