<svg width="24" height="24" viewBox="0 0 24 24" fill="none" xmlns="http://www.w3.org/2000/svg">
<path d="M8 8H6.2C5.08 8 4.52 8 4.092 8.218C3.71565 8.40969 3.40969 8.71565 3.218 9.092C3 9.52 3 10.08 3 11.2V16.8C3 17.92 3 18.48 3.218 18.908C3.40974 19.2843 3.71569 19.5903 4.092 19.782C4.519 20 5.079 20 6.197 20H17.803C18.921 20 19.48 20 19.907 19.782C20.284 19.59 20.59 19.284 20.782 18.908C21 18.48 21 17.922 21 16.804V11.197C21 10.079 21 9.519 20.782 9.092C20.5899 8.71558 20.2836 8.40963 19.907 8.218C19.48 8 18.92 8 17.8 8H16M8 8H16M8 8C8 6.93913 8.42143 5.92172 9.17157 5.17157C9.92172 4.42143 10.9391 4 12 4C13.0609 4 14.0783 4.42143 14.8284 5.17157C15.5786 5.92172 16 6.93913 16 8" stroke="black" stroke-width="2" stroke-linecap="round" stroke-linejoin="round"/>
</svg>
