<svg width="24" height="24" viewBox="0 0 24 24" fill="none" xmlns="http://www.w3.org/2000/svg">
<path d="M12.0002 2.5C13.1763 2.49964 14.3216 2.87629 15.2679 3.57467C16.2142 4.27305 16.9117 5.25638 17.258 6.38032C17.6044 7.50427 17.5813 8.70964 17.1922 9.81952C16.8032 10.9294 16.0686 11.8853 15.0962 12.547C16.7839 13.166 18.2477 14.2759 19.2992 15.7339C20.3506 17.1919 20.9417 18.9312 20.9962 20.728C21.0013 20.8277 20.9865 20.9275 20.9525 21.0214C20.9185 21.1153 20.8662 21.2015 20.7984 21.2749C20.7307 21.3483 20.649 21.4074 20.5582 21.4488C20.4673 21.4902 20.369 21.513 20.2692 21.516C20.1694 21.5189 20.07 21.5019 19.9769 21.4659C19.8837 21.4299 19.7987 21.3756 19.7268 21.3063C19.6549 21.237 19.5975 21.1541 19.5581 21.0623C19.5187 20.9706 19.498 20.8719 19.4972 20.772C19.4377 18.8235 18.6218 16.9747 17.2224 15.6174C15.8231 14.2602 13.9502 13.5011 12.0007 13.5011C10.0513 13.5011 8.17844 14.2602 6.77907 15.6174C5.3797 16.9747 4.56379 18.8235 4.50424 20.772C4.49828 20.9709 4.41354 21.1593 4.26866 21.2957C4.12379 21.4322 3.93066 21.5055 3.73174 21.4995C3.53283 21.4935 3.34444 21.4088 3.208 21.2639C3.07157 21.119 2.99828 20.9259 3.00424 20.727C3.05899 18.9304 3.65014 17.1913 4.7016 15.7335C5.75307 14.2757 7.21674 13.1659 8.90424 12.547C7.93193 11.8853 7.19732 10.9294 6.80825 9.81952C6.41917 8.70964 6.39611 7.50427 6.74245 6.38032C7.0888 5.25638 7.78631 4.27305 8.7326 3.57467C9.6789 2.87629 10.8241 2.49964 12.0002 2.5ZM8.00024 8C8.00024 9.06087 8.42167 10.0783 9.17182 10.8284C9.92196 11.5786 10.9394 12 12.0002 12C13.0611 12 14.0785 11.5786 14.8287 10.8284C15.5788 10.0783 16.0002 9.06087 16.0002 8C16.0002 6.93913 15.5788 5.92172 14.8287 5.17157C14.0785 4.42143 13.0611 4 12.0002 4C10.9394 4 9.92196 4.42143 9.17182 5.17157C8.42167 5.92172 8.00024 6.93913 8.00024 8Z" fill="black"/>
</svg>
